<?xml version="1.0" encoding="UTF-8"?>
<!DOCTYPE svg PUBLIC "-//W3C//DTD SVG 1.1//EN" "http://www.w3.org/Graphics/SVG/1.1/DTD/svg11.dtd">
<svg width="204mm" height="76mm" viewBox="0 0 20400 7600" version="1.1" xmlns="http://www.w3.org/2000/svg" xmlns:xlink="http://www.w3.org/1999/xlink" stroke-width="28.222" stroke-linejoin="round" xml:space="preserve">
 <path fill="rgb(255,255,255)" stroke="none" d="M 10185,7631 L 0,7631 0,0 20369,0 20369,7631 10185,7631 Z"/>
 <path fill="none" stroke="rgb(179,179,179)" stroke-linejoin="round" d="M 10662,5851 L 3680,5851 3680,152 17644,152 17644,5851 10662,5851 Z"/>
 <path fill="none" stroke="rgb(179,179,179)" stroke-linejoin="round" d="M 3680,151 L 3680,5850"/>
 <path fill="none" stroke="rgb(179,179,179)" stroke-linejoin="round" d="M 6007,151 L 6007,5850"/>
 <path fill="none" stroke="rgb(179,179,179)" stroke-linejoin="round" d="M 8335,151 L 8335,5850"/>
 <path fill="none" stroke="rgb(179,179,179)" stroke-linejoin="round" d="M 10661,151 L 10661,5850"/>
 <path fill="none" stroke="rgb(179,179,179)" stroke-linejoin="round" d="M 12989,151 L 12989,5850"/>
 <path fill="none" stroke="rgb(179,179,179)" stroke-linejoin="round" d="M 15316,151 L 15316,5850"/>
 <path fill="none" stroke="rgb(179,179,179)" stroke-linejoin="round" d="M 17644,151 L 17644,5850"/>
 <path fill="none" stroke="rgb(179,179,179)" stroke-linejoin="round" d="M 3530,5850 L 3680,5850"/>
 <path fill="none" stroke="rgb(179,179,179)" stroke-linejoin="round" d="M 3530,5850 L 3680,5850"/>
 <path fill="none" stroke="rgb(179,179,179)" stroke-linejoin="round" d="M 3530,4900 L 3680,4900"/>
 <path fill="none" stroke="rgb(179,179,179)" stroke-linejoin="round" d="M 3530,4900 L 3680,4900"/>
 <path fill="none" stroke="rgb(179,179,179)" stroke-linejoin="round" d="M 3530,3950 L 3680,3950"/>
 <path fill="none" stroke="rgb(179,179,179)" stroke-linejoin="round" d="M 3530,3950 L 3680,3950"/>
 <path fill="none" stroke="rgb(179,179,179)" stroke-linejoin="round" d="M 3530,3001 L 3680,3001"/>
 <path fill="none" stroke="rgb(179,179,179)" stroke-linejoin="round" d="M 3530,3001 L 3680,3001"/>
 <path fill="none" stroke="rgb(179,179,179)" stroke-linejoin="round" d="M 3530,2051 L 3680,2051"/>
 <path fill="none" stroke="rgb(179,179,179)" stroke-linejoin="round" d="M 3530,2051 L 3680,2051"/>
 <path fill="none" stroke="rgb(179,179,179)" stroke-linejoin="round" d="M 3530,1101 L 3680,1101"/>
 <path fill="none" stroke="rgb(179,179,179)" stroke-linejoin="round" d="M 3530,1101 L 3680,1101"/>
 <path fill="none" stroke="rgb(179,179,179)" stroke-linejoin="round" d="M 3530,151 L 3680,151"/>
 <path fill="none" stroke="rgb(179,179,179)" stroke-linejoin="round" d="M 3530,151 L 3680,151"/>
 <path fill="none" stroke="rgb(179,179,179)" stroke-linejoin="round" d="M 3680,5850 L 3680,151"/>
 <path fill="none" stroke="rgb(179,179,179)" stroke-linejoin="round" d="M 3680,6000 L 3680,5850"/>
 <path fill="none" stroke="rgb(179,179,179)" stroke-linejoin="round" d="M 3680,6000 L 3680,5850"/>
 <path fill="none" stroke="rgb(179,179,179)" stroke-linejoin="round" d="M 6007,6000 L 6007,5850"/>
 <path fill="none" stroke="rgb(179,179,179)" stroke-linejoin="round" d="M 6007,6000 L 6007,5850"/>
 <path fill="none" stroke="rgb(179,179,179)" stroke-linejoin="round" d="M 8335,6000 L 8335,5850"/>
 <path fill="none" stroke="rgb(179,179,179)" stroke-linejoin="round" d="M 8335,6000 L 8335,5850"/>
 <path fill="none" stroke="rgb(179,179,179)" stroke-linejoin="round" d="M 10661,6000 L 10661,5850"/>
 <path fill="none" stroke="rgb(179,179,179)" stroke-linejoin="round" d="M 10661,6000 L 10661,5850"/>
 <path fill="none" stroke="rgb(179,179,179)" stroke-linejoin="round" d="M 12989,6000 L 12989,5850"/>
 <path fill="none" stroke="rgb(179,179,179)" stroke-linejoin="round" d="M 12989,6000 L 12989,5850"/>
 <path fill="none" stroke="rgb(179,179,179)" stroke-linejoin="round" d="M 15316,6000 L 15316,5850"/>
 <path fill="none" stroke="rgb(179,179,179)" stroke-linejoin="round" d="M 15316,6000 L 15316,5850"/>
 <path fill="none" stroke="rgb(179,179,179)" stroke-linejoin="round" d="M 17644,6000 L 17644,5850"/>
 <path fill="none" stroke="rgb(179,179,179)" stroke-linejoin="round" d="M 17644,6000 L 17644,5850"/>
 <path fill="none" stroke="rgb(179,179,179)" stroke-linejoin="round" d="M 3680,5850 L 17644,5850"/>
 <path fill="rgb(0,69,134)" stroke="none" d="M 3680,982 L 3680,744 10173,744 10173,982 3680,982 Z"/>
 <path fill="rgb(0,69,134)" stroke="none" d="M 3680,1932 L 3680,1694 8591,1694 8591,1932 3680,1932 Z"/>
 <path fill="rgb(0,69,134)" stroke="none" d="M 3680,2882 L 3680,2644 12267,2644 12267,2882 3680,2882 Z"/>
 <path fill="rgb(0,69,134)" stroke="none" d="M 3680,3831 L 3680,3594 10708,3594 10708,3831 3680,3831 Z"/>
 <path fill="rgb(0,69,134)" stroke="none" d="M 3680,4781 L 3680,4543 13361,4543 13361,4781 3680,4781 Z"/>
 <path fill="rgb(0,69,134)" stroke="none" d="M 3680,5731 L 3680,5493 13826,5493 13826,5731 3680,5731 Z"/>
 <path fill="rgb(255,66,14)" stroke="none" d="M 3680,744 L 3680,507 14338,507 14338,744 3680,744 Z"/>
 <path fill="rgb(255,66,14)" stroke="none" d="M 3680,1694 L 3680,1457 14315,1457 14315,1694 3680,1694 Z"/>
 <path fill="rgb(255,66,14)" stroke="none" d="M 3680,2644 L 3680,2407 14781,2407 14781,2644 3680,2644 Z"/>
 <path fill="rgb(255,66,14)" stroke="none" d="M 3680,3594 L 3680,3357 15316,3357 15316,3594 3680,3594 Z"/>
 <path fill="rgb(255,66,14)" stroke="none" d="M 3680,4543 L 3680,4306 14548,4306 14548,4543 3680,4543 Z"/>
 <path fill="rgb(255,66,14)" stroke="none" d="M 3680,5493 L 3680,5256 14897,5256 14897,5493 3680,5493 Z"/>
 <path fill="rgb(255,211,32)" stroke="none" d="M 3680,507 L 3680,269 12267,269 12267,507 3680,507 Z"/>
 <path fill="rgb(255,211,32)" stroke="none" d="M 3680,1457 L 3680,1219 11452,1219 11452,1457 3680,1457 Z"/>
 <path fill="rgb(255,211,32)" stroke="none" d="M 3680,2407 L 3680,2169 13524,2169 13524,2407 3680,2407 Z"/>
 <path fill="rgb(255,211,32)" stroke="none" d="M 3680,3357 L 3680,3119 13012,3119 13012,3357 3680,3357 Z"/>
 <path fill="rgb(255,211,32)" stroke="none" d="M 3680,4306 L 3680,4068 13966,4068 13966,4306 3680,4306 Z"/>
 <path fill="rgb(255,211,32)" stroke="none" d="M 3680,5256 L 3680,5018 14362,5018 14362,5256 3680,5256 Z"/>
 <text class="TextShape"><tspan class="TextParagraph" font-family="Liberation Sans, sans-serif" font-size="353px" font-weight="400"><tspan class="TextPosition" x="2134" y="5496"><tspan fill="rgb(0,0,0)" stroke="none">608x608</tspan></tspan></tspan></text>
 <text class="TextShape"><tspan class="TextParagraph" font-family="Liberation Sans, sans-serif" font-size="353px" font-weight="400"><tspan class="TextPosition" x="1419" y="4546"><tspan fill="rgb(0,0,0)" stroke="none">R45 608x608</tspan></tspan></tspan></text>
 <text class="TextShape"><tspan class="TextParagraph" font-family="Liberation Sans, sans-serif" font-size="353px" font-weight="400"><tspan class="TextPosition" x="2134" y="3596"><tspan fill="rgb(0,0,0)" stroke="none">448x448</tspan></tspan></tspan></text>
 <text class="TextShape"><tspan class="TextParagraph" font-family="Liberation Sans, sans-serif" font-size="353px" font-weight="400"><tspan class="TextPosition" x="1419" y="2646"><tspan fill="rgb(0,0,0)" stroke="none">R45 448x448</tspan></tspan></tspan></text>
 <text class="TextShape"><tspan class="TextParagraph" font-family="Liberation Sans, sans-serif" font-size="353px" font-weight="400"><tspan class="TextPosition" x="2134" y="1696"><tspan fill="rgb(0,0,0)" stroke="none">320x320</tspan></tspan></tspan></text>
 <text class="TextShape"><tspan class="TextParagraph" font-family="Liberation Sans, sans-serif" font-size="353px" font-weight="400"><tspan class="TextPosition" x="1419" y="746"><tspan fill="rgb(0,0,0)" stroke="none">R45 320x320</tspan></tspan></tspan></text>
 <text class="TextShape"><tspan class="TextParagraph" font-family="Liberation Sans, sans-serif" font-size="353px" font-weight="400"><tspan class="TextPosition" x="3256" y="6418"><tspan fill="rgb(0,0,0)" stroke="none">0.300</tspan></tspan></tspan></text>
 <text class="TextShape"><tspan class="TextParagraph" font-family="Liberation Sans, sans-serif" font-size="353px" font-weight="400"><tspan class="TextPosition" x="5583" y="6418"><tspan fill="rgb(0,0,0)" stroke="none">0.400</tspan></tspan></tspan></text>
 <text class="TextShape"><tspan class="TextParagraph" font-family="Liberation Sans, sans-serif" font-size="353px" font-weight="400"><tspan class="TextPosition" x="7911" y="6418"><tspan fill="rgb(0,0,0)" stroke="none">0.500</tspan></tspan></tspan></text>
 <text class="TextShape"><tspan class="TextParagraph" font-family="Liberation Sans, sans-serif" font-size="353px" font-weight="400"><tspan class="TextPosition" x="10238" y="6418"><tspan fill="rgb(0,0,0)" stroke="none">0.600</tspan></tspan></tspan></text>
 <text class="TextShape"><tspan class="TextParagraph" font-family="Liberation Sans, sans-serif" font-size="353px" font-weight="400"><tspan class="TextPosition" x="12566" y="6418"><tspan fill="rgb(0,0,0)" stroke="none">0.700</tspan></tspan></tspan></text>
 <text class="TextShape"><tspan class="TextParagraph" font-family="Liberation Sans, sans-serif" font-size="353px" font-weight="400"><tspan class="TextPosition" x="14893" y="6418"><tspan fill="rgb(0,0,0)" stroke="none">0.800</tspan></tspan></tspan></text>
 <text class="TextShape"><tspan class="TextParagraph" font-family="Liberation Sans, sans-serif" font-size="353px" font-weight="400"><tspan class="TextPosition" x="17221" y="6418"><tspan fill="rgb(0,0,0)" stroke="none">0.900</tspan></tspan></tspan></text>
 <text class="TextShape"><tspan class="TextParagraph" font-family="Liberation Sans, sans-serif" font-size="353px" font-weight="400"><tspan class="TextPosition" x="13926" y="5733"><tspan fill="rgb(0,0,0)" stroke="none">0.736</tspan></tspan></tspan></text>
 <text class="TextShape"><tspan class="TextParagraph" font-family="Liberation Sans, sans-serif" font-size="353px" font-weight="400"><tspan class="TextPosition" x="13461" y="4783"><tspan fill="rgb(0,0,0)" stroke="none">0.716</tspan></tspan></tspan></text>
 <text class="TextShape"><tspan class="TextParagraph" font-family="Liberation Sans, sans-serif" font-size="353px" font-weight="400"><tspan class="TextPosition" x="10808" y="3833"><tspan fill="rgb(0,0,0)" stroke="none">0.602</tspan></tspan></tspan></text>
 <text class="TextShape"><tspan class="TextParagraph" font-family="Liberation Sans, sans-serif" font-size="353px" font-weight="400"><tspan class="TextPosition" x="12367" y="2883"><tspan fill="rgb(0,0,0)" stroke="none">0.669</tspan></tspan></tspan></text>
 <text class="TextShape"><tspan class="TextParagraph" font-family="Liberation Sans, sans-serif" font-size="353px" font-weight="400"><tspan class="TextPosition" x="8691" y="1933"><tspan fill="rgb(0,0,0)" stroke="none">0.511</tspan></tspan></tspan></text>
 <text class="TextShape"><tspan class="TextParagraph" font-family="Liberation Sans, sans-serif" font-size="353px" font-weight="400"><tspan class="TextPosition" x="10272" y="983"><tspan fill="rgb(0,0,0)" stroke="none">0.579</tspan></tspan></tspan></text>
 <text class="TextShape"><tspan class="TextParagraph" font-family="Liberation Sans, sans-serif" font-size="353px" font-weight="400"><tspan class="TextPosition" x="14997" y="5496"><tspan fill="rgb(0,0,0)" stroke="none">0.782</tspan></tspan></tspan></text>
 <text class="TextShape"><tspan class="TextParagraph" font-family="Liberation Sans, sans-serif" font-size="353px" font-weight="400"><tspan class="TextPosition" x="14648" y="4546"><tspan fill="rgb(0,0,0)" stroke="none">0.767</tspan></tspan></tspan></text>
 <text class="TextShape"><tspan class="TextParagraph" font-family="Liberation Sans, sans-serif" font-size="353px" font-weight="400"><tspan class="TextPosition" x="15416" y="3596"><tspan fill="rgb(0,0,0)" stroke="none">0.800</tspan></tspan></tspan></text>
 <text class="TextShape"><tspan class="TextParagraph" font-family="Liberation Sans, sans-serif" font-size="353px" font-weight="400"><tspan class="TextPosition" x="14881" y="2646"><tspan fill="rgb(0,0,0)" stroke="none">0.777</tspan></tspan></tspan></text>
 <text class="TextShape"><tspan class="TextParagraph" font-family="Liberation Sans, sans-serif" font-size="353px" font-weight="400"><tspan class="TextPosition" x="14415" y="1696"><tspan fill="rgb(0,0,0)" stroke="none">0.757</tspan></tspan></tspan></text>
 <text class="TextShape"><tspan class="TextParagraph" font-family="Liberation Sans, sans-serif" font-size="353px" font-weight="400"><tspan class="TextPosition" x="14438" y="746"><tspan fill="rgb(0,0,0)" stroke="none">0.758</tspan></tspan></tspan></text>
 <text class="TextShape"><tspan class="TextParagraph" font-family="Liberation Sans, sans-serif" font-size="353px" font-weight="400"><tspan class="TextPosition" x="14462" y="5258"><tspan fill="rgb(0,0,0)" stroke="none">0.759</tspan></tspan></tspan></text>
 <text class="TextShape"><tspan class="TextParagraph" font-family="Liberation Sans, sans-serif" font-size="353px" font-weight="400"><tspan class="TextPosition" x="14066" y="4308"><tspan fill="rgb(0,0,0)" stroke="none">0.742</tspan></tspan></tspan></text>
 <text class="TextShape"><tspan class="TextParagraph" font-family="Liberation Sans, sans-serif" font-size="353px" font-weight="400"><tspan class="TextPosition" x="13112" y="3358"><tspan fill="rgb(0,0,0)" stroke="none">0.701</tspan></tspan></tspan></text>
 <text class="TextShape"><tspan class="TextParagraph" font-family="Liberation Sans, sans-serif" font-size="353px" font-weight="400"><tspan class="TextPosition" x="13624" y="2408"><tspan fill="rgb(0,0,0)" stroke="none">0.723</tspan></tspan></tspan></text>
 <text class="TextShape"><tspan class="TextParagraph" font-family="Liberation Sans, sans-serif" font-size="353px" font-weight="400"><tspan class="TextPosition" x="11552" y="1458"><tspan fill="rgb(0,0,0)" stroke="none">0.634</tspan></tspan></tspan></text>
 <text class="TextShape"><tspan class="TextParagraph" font-family="Liberation Sans, sans-serif" font-size="353px" font-weight="400"><tspan class="TextPosition" x="12367" y="508"><tspan fill="rgb(0,0,0)" stroke="none">0.669</tspan></tspan></tspan></text>
 <path fill="rgb(0,69,134)" stroke="none" d="M 18698,4418 L 18592,4418 18592,4207 18803,4207 18803,4418 18698,4418 Z"/>
 <path fill="rgb(255,66,14)" stroke="none" d="M 18698,3920 L 18592,3920 18592,3710 18803,3710 18803,3920 18698,3920 Z"/>
 <path fill="rgb(255,211,32)" stroke="none" d="M 18698,3423 L 18592,3423 18592,3212 18803,3212 18803,3423 18698,3423 Z"/>
 <text class="TextShape"><tspan class="TextParagraph" font-family="Liberation Sans, sans-serif" font-size="353px" font-weight="400"><tspan class="TextPosition" x="18903" y="3437"><tspan fill="rgb(0,0,0)" stroke="none">mAP</tspan></tspan></tspan></text>
 <text class="TextShape"><tspan class="TextParagraph" font-family="Liberation Sans, sans-serif" font-size="353px" font-weight="400"><tspan class="TextPosition" x="18903" y="3934"><tspan fill="rgb(0,0,0)" stroke="none">AP car</tspan></tspan></tspan></text>
 <text class="TextShape"><tspan class="TextParagraph" font-family="Liberation Sans, sans-serif" font-size="353px" font-weight="400"><tspan class="TextPosition" x="18903" y="4432"><tspan fill="rgb(0,0,0)" stroke="none">AP ped</tspan></tspan></tspan></text>
 <text class="TextShape"><tspan class="TextParagraph" font-family="Liberation Sans, sans-serif" font-size="318px" font-weight="400"><tspan class="TextPosition" x="8421" y="7037"><tspan fill="rgb(0,0,0)" stroke="none">Average Precision</tspan></tspan></tspan></text>
 <text class="TextShape" transform="rotate(-90 837 3972)"><tspan class="TextParagraph" font-family="Liberation Sans, sans-serif" font-size="318px" font-weight="400"><tspan class="TextPosition" x="837" y="3972"><tspan fill="rgb(0,0,0)" stroke="none">BEV size</tspan></tspan></tspan></text>
</svg>